<svg width="512" height="512" viewBox="0 0 512 512" fill="none" xmlns="http://www.w3.org/2000/svg">
<rect width="512" height="512" rx="16" fill="#638CC9"/>
<mask id="mask0" mask-type="alpha" maskUnits="userSpaceOnUse" x="0" y="0" width="512" height="512">
<rect width="512" height="512" rx="16" fill="#EBE4BF"/>
</mask>
<g mask="url(#mask0)">
<path fill-rule="evenodd" clip-rule="evenodd" d="M345.771 452.028C340.063 461.084 327.243 462.088 320.194 454.031L135.093 242.465C128.719 235.178 117.384 235.178 111.01 242.465L-170.011 563.666C-179.062 574.011 -171.715 590.201 -157.969 590.201H257.641C258.09 590.201 258.363 590.696 258.124 591.076V591.076C257.884 591.456 258.157 591.951 258.606 591.951H556.666C569.261 591.951 576.918 578.074 570.202 567.419L435.154 353.174C428.877 343.217 414.36 343.217 408.083 353.174L345.771 452.028Z" fill="#EBE4BF"/>
</g>
<circle cx="330.5" cy="144.5" r="74.5" fill="#EBE4BF"/>
<path fill-rule="evenodd" clip-rule="evenodd" d="M16 0C7.16344 0 0 7.16344 0 16V496C0 504.837 7.16344 512 16 512H496C504.837 512 512 504.837 512 496V16C512 7.16344 504.837 0 496 0H16ZM344.688 85.6C335.131 85.6 327.792 90.208 322.672 99.424L255.6 222.304L188.528 99.424C183.408 90.208 176.069 85.6 166.512 85.6H72.816C69.0613 85.6 65.8187 86.9653 63.088 89.696C60.3573 92.4267 58.992 95.6693 58.992 99.424V430.176C58.992 433.931 60.3573 437.173 63.088 439.904C65.8187 442.635 69.0613 444 72.816 444H165.488C169.243 444 172.485 442.635 175.216 439.904C177.947 437.173 179.312 433.931 179.312 430.176V271.456L216.688 345.184C217.712 347.573 220.101 350.304 223.856 353.376C227.611 356.448 232.389 357.984 238.192 357.984H273.008C278.811 357.984 283.589 356.448 287.344 353.376C291.099 350.304 293.488 347.573 294.512 345.184L331.888 271.456V430.176C331.888 433.931 333.253 437.173 335.984 439.904C338.715 442.635 341.957 444 345.712 444H438.384C442.139 444 445.381 442.635 448.112 439.904C450.843 437.173 452.208 433.931 452.208 430.176V99.424C452.208 95.6693 450.843 92.4267 448.112 89.696C445.381 86.9653 442.139 85.6 438.384 85.6H344.688Z" fill="black" fill-opacity="0.27"/>
<path d="M322.672 99.424L321.361 98.6955L321.355 98.7053L322.672 99.424ZM448.112 89.696L449.173 88.6353L449.173 88.6353L448.112 89.696ZM448.112 439.904L449.173 440.965L449.173 440.965L448.112 439.904ZM335.984 439.904L337.045 438.843L335.984 439.904ZM331.888 271.456H333.388C333.388 270.762 332.912 270.158 332.237 269.997C331.562 269.836 330.864 270.159 330.55 270.778L331.888 271.456ZM294.512 345.184L293.174 344.506C293.16 344.534 293.146 344.564 293.133 344.593L294.512 345.184ZM287.344 353.376L288.294 354.537L288.294 354.537L287.344 353.376ZM223.856 353.376L222.906 354.537L222.906 354.537L223.856 353.376ZM216.688 345.184L218.067 344.593C218.054 344.564 218.04 344.534 218.026 344.506L216.688 345.184ZM179.312 271.456L180.65 270.778C180.336 270.159 179.638 269.836 178.963 269.997C178.288 270.158 177.812 270.762 177.812 271.456H179.312ZM175.216 439.904L174.155 438.843L174.155 438.843L175.216 439.904ZM63.088 89.696L64.1487 90.7566L63.088 89.696ZM188.528 99.424L189.845 98.7053L189.839 98.6955L188.528 99.424ZM255.6 222.304L254.283 223.023C254.546 223.504 255.051 223.804 255.6 223.804C256.149 223.804 256.654 223.504 256.917 223.023L255.6 222.304ZM315.766 108.945C315.369 109.672 315.637 110.584 316.364 110.981C317.091 111.378 318.002 111.11 318.399 110.383L315.766 108.945ZM307.221 130.863C307.618 130.135 307.35 129.224 306.623 128.827C305.896 128.43 304.984 128.698 304.587 129.425L307.221 130.863ZM293.409 149.905C293.012 150.632 293.28 151.544 294.007 151.941C294.734 152.338 295.645 152.07 296.042 151.343L293.409 149.905ZM284.863 171.823C285.26 171.095 284.993 170.184 284.265 169.787C283.538 169.39 282.627 169.658 282.23 170.385L284.863 171.823ZM271.051 190.865C270.654 191.592 270.922 192.504 271.649 192.901C272.377 193.298 273.288 193.03 273.685 192.303L271.051 190.865ZM262.506 212.783C262.903 212.055 262.635 211.144 261.908 210.747C261.181 210.35 260.27 210.618 259.873 211.345L262.506 212.783ZM251.327 211.345C250.93 210.618 250.019 210.35 249.292 210.747C248.565 211.144 248.297 212.055 248.694 212.783L251.327 211.345ZM237.515 192.303C237.912 193.03 238.824 193.298 239.551 192.901C240.278 192.504 240.546 191.592 240.149 190.865L237.515 192.303ZM228.97 170.385C228.573 169.658 227.662 169.39 226.935 169.787C226.208 170.184 225.94 171.095 226.337 171.823L228.97 170.385ZM215.158 151.343C215.555 152.07 216.466 152.338 217.193 151.941C217.92 151.544 218.188 150.632 217.791 149.905L215.158 151.343ZM206.613 129.425C206.216 128.698 205.304 128.43 204.577 128.827C203.85 129.224 203.582 130.135 203.979 130.863L206.613 129.425ZM192.801 110.383C193.198 111.11 194.109 111.378 194.836 110.981C195.563 110.584 195.831 109.672 195.434 108.945L192.801 110.383ZM185.773 92.81C185.231 92.1837 184.284 92.1155 183.657 92.6577C183.031 93.1999 182.963 94.1472 183.505 94.7735L185.773 92.81ZM172.895 87.918C173.694 88.137 174.519 87.6668 174.738 86.8678C174.957 86.0688 174.486 85.2436 173.687 85.0247L172.895 87.918ZM154.8 84.1C153.972 84.1 153.3 84.7715 153.3 85.6C153.3 86.4284 153.972 87.1 154.8 87.1V84.1ZM131.376 87.1C132.204 87.1 132.876 86.4284 132.876 85.6C132.876 84.7715 132.204 84.1 131.376 84.1V87.1ZM107.952 84.1C107.124 84.1 106.452 84.7715 106.452 85.6C106.452 86.4284 107.124 87.1 107.952 87.1V84.1ZM84.528 87.1C85.3564 87.1 86.028 86.4284 86.028 85.6C86.028 84.7715 85.3564 84.1 84.528 84.1V87.1ZM69.8348 84.3787C69.0214 84.5359 68.4894 85.3227 68.6466 86.1361C68.8038 86.9494 69.5906 87.4814 70.404 87.3242L69.8348 84.3787ZM66.0174 89.1845C66.6977 88.7118 66.866 87.7771 66.3934 87.0968C65.9207 86.4164 64.9859 86.2481 64.3056 86.7208L66.0174 89.1845ZM60.1128 90.9136C59.6401 91.5939 59.8084 92.5286 60.4888 93.0013C61.1691 93.474 62.1038 93.3057 62.5765 92.6254L60.1128 90.9136ZM60.7162 97.012C60.8734 96.1986 60.3415 95.4118 59.5281 95.2546C58.7147 95.0974 57.9279 95.6294 57.7707 96.4428L60.7162 97.012ZM57.492 111.237C57.492 112.065 58.1636 112.737 58.992 112.737C59.8204 112.737 60.492 112.065 60.492 111.237H57.492ZM60.492 134.862C60.492 134.033 59.8204 133.362 58.992 133.362C58.1636 133.362 57.492 134.033 57.492 134.862H60.492ZM57.492 158.487C57.492 159.315 58.1636 159.987 58.992 159.987C59.8204 159.987 60.492 159.315 60.492 158.487H57.492ZM60.492 182.112C60.492 181.284 59.8204 180.612 58.992 180.612C58.1636 180.612 57.492 181.284 57.492 182.112H60.492ZM57.492 205.737C57.492 206.566 58.1636 207.237 58.992 207.237C59.8204 207.237 60.492 206.566 60.492 205.737H57.492ZM60.492 229.362C60.492 228.534 59.8204 227.862 58.992 227.862C58.1636 227.862 57.492 228.534 57.492 229.362H60.492ZM57.492 252.987C57.492 253.816 58.1636 254.487 58.992 254.487C59.8204 254.487 60.492 253.816 60.492 252.987H57.492ZM60.492 276.613C60.492 275.784 59.8204 275.113 58.992 275.113C58.1636 275.113 57.492 275.784 57.492 276.613H60.492ZM57.492 300.238C57.492 301.066 58.1636 301.738 58.992 301.738C59.8204 301.738 60.492 301.066 60.492 300.238H57.492ZM60.492 323.863C60.492 323.034 59.8204 322.363 58.992 322.363C58.1636 322.363 57.492 323.034 57.492 323.863H60.492ZM57.492 347.488C57.492 348.316 58.1636 348.988 58.992 348.988C59.8204 348.988 60.492 348.316 60.492 347.488H57.492ZM60.492 371.113C60.492 370.285 59.8204 369.613 58.992 369.613C58.1636 369.613 57.492 370.285 57.492 371.113H60.492ZM57.492 394.738C57.492 395.567 58.1636 396.238 58.992 396.238C59.8204 396.238 60.492 395.567 60.492 394.738H57.492ZM60.492 418.363C60.492 417.535 59.8204 416.863 58.992 416.863C58.1636 416.863 57.492 417.535 57.492 418.363H60.492ZM57.7707 433.157C57.9279 433.971 58.7147 434.503 59.5281 434.345C60.3415 434.188 60.8734 433.401 60.7162 432.588L57.7707 433.157ZM62.5765 436.975C62.1038 436.294 61.1691 436.126 60.4888 436.599C59.8084 437.071 59.6401 438.006 60.1128 438.686L62.5765 436.975ZM64.3056 442.879C64.9859 443.352 65.9207 443.184 66.3934 442.503C66.866 441.823 66.6977 440.888 66.0174 440.415L64.3056 442.879ZM70.404 442.276C69.5906 442.119 68.8038 442.651 68.6466 443.464C68.4895 444.277 69.0214 445.064 69.8348 445.221L70.404 442.276ZM84.4 445.5C85.2284 445.5 85.9 444.828 85.9 444C85.9 443.172 85.2284 442.5 84.4 442.5V445.5ZM107.568 442.5C106.74 442.5 106.068 443.172 106.068 444C106.068 444.828 106.74 445.5 107.568 445.5V442.5ZM130.736 445.5C131.564 445.5 132.236 444.828 132.236 444C132.236 443.172 131.564 442.5 130.736 442.5V445.5ZM153.904 442.5C153.076 442.5 152.404 443.172 152.404 444C152.404 444.828 153.076 445.5 153.904 445.5V442.5ZM168.469 445.221C169.283 445.064 169.815 444.277 169.657 443.464C169.5 442.651 168.713 442.119 167.9 442.276L168.469 445.221ZM172.287 440.415C171.606 440.888 171.438 441.823 171.911 442.503C172.383 443.184 173.318 443.352 173.998 442.879L172.287 440.415ZM178.191 438.686C178.664 438.006 178.496 437.071 177.815 436.599C177.135 436.126 176.2 436.294 175.727 436.975L178.191 438.686ZM177.588 432.588C177.431 433.401 177.963 434.188 178.776 434.345C179.589 434.503 180.376 433.971 180.533 433.157L177.588 432.588ZM180.812 416.949C180.812 416.121 180.14 415.449 179.312 415.449C178.484 415.449 177.812 416.121 177.812 416.949H180.812ZM177.812 390.496C177.812 391.324 178.484 391.996 179.312 391.996C180.14 391.996 180.812 391.324 180.812 390.496H177.812ZM180.812 364.043C180.812 363.214 180.14 362.543 179.312 362.543C178.484 362.543 177.812 363.214 177.812 364.043H180.812ZM177.812 337.589C177.812 338.418 178.484 339.089 179.312 339.089C180.14 339.089 180.812 338.418 180.812 337.589H177.812ZM180.812 311.136C180.812 310.308 180.14 309.636 179.312 309.636C178.484 309.636 177.812 310.308 177.812 311.136H180.812ZM177.812 284.683C177.812 285.511 178.484 286.183 179.312 286.183C180.14 286.183 180.812 285.511 180.812 284.683H177.812ZM182.646 281.35C183.021 282.089 183.923 282.384 184.662 282.01C185.401 281.635 185.696 280.733 185.322 279.994L182.646 281.35ZM194.666 298.426C194.291 297.687 193.389 297.392 192.65 297.766C191.911 298.141 191.616 299.043 191.99 299.782L194.666 298.426ZM201.334 318.214C201.709 318.953 202.611 319.248 203.35 318.874C204.089 318.499 204.384 317.597 204.01 316.858L201.334 318.214ZM213.354 335.29C212.979 334.551 212.077 334.256 211.338 334.63C210.599 335.005 210.304 335.907 210.678 336.646L213.354 335.29ZM216.852 348.43C217.338 349.101 218.276 349.251 218.947 348.765C219.618 348.279 219.768 347.341 219.282 346.671L216.852 348.43ZM222.789 350.476C222.178 349.917 221.229 349.959 220.67 350.571C220.111 351.182 220.154 352.131 220.765 352.69L222.789 350.476ZM226.356 356.821C227.09 357.206 227.996 356.924 228.382 356.191C228.767 355.458 228.485 354.551 227.752 354.166L226.356 356.821ZM234.556 356.254C233.735 356.146 232.981 356.724 232.873 357.545C232.764 358.366 233.342 359.12 234.163 359.229L234.556 356.254ZM246.896 359.484C247.724 359.484 248.396 358.812 248.396 357.984C248.396 357.156 247.724 356.484 246.896 356.484V359.484ZM264.304 356.484C263.476 356.484 262.804 357.156 262.804 357.984C262.804 358.812 263.476 359.484 264.304 359.484V356.484ZM277.037 359.229C277.858 359.12 278.436 358.366 278.327 357.545C278.219 356.724 277.465 356.146 276.644 356.254L277.037 359.229ZM283.448 354.166C282.715 354.551 282.433 355.458 282.818 356.191C283.204 356.924 284.11 357.206 284.844 356.821L283.448 354.166ZM290.435 352.69C291.046 352.131 291.089 351.182 290.53 350.571C289.971 349.959 289.022 349.917 288.411 350.476L290.435 352.69ZM291.918 346.671C291.432 347.341 291.582 348.279 292.253 348.765C292.924 349.251 293.862 349.101 294.348 348.43L291.918 346.671ZM300.522 336.646C300.897 335.907 300.601 335.005 299.862 334.63C299.123 334.256 298.221 334.551 297.846 335.29L300.522 336.646ZM307.19 316.858C306.816 317.597 307.111 318.499 307.85 318.874C308.589 319.248 309.491 318.953 309.866 318.214L307.19 316.858ZM319.21 299.782C319.584 299.043 319.289 298.141 318.55 297.766C317.811 297.392 316.909 297.687 316.534 298.426L319.21 299.782ZM325.878 279.994C325.504 280.733 325.799 281.635 326.538 282.01C327.277 282.384 328.179 282.089 328.554 281.35L325.878 279.994ZM330.388 284.683C330.388 285.511 331.06 286.183 331.888 286.183C332.716 286.183 333.388 285.511 333.388 284.683H330.388ZM333.388 311.136C333.388 310.308 332.716 309.636 331.888 309.636C331.06 309.636 330.388 310.308 330.388 311.136H333.388ZM330.388 337.589C330.388 338.418 331.06 339.089 331.888 339.089C332.716 339.089 333.388 338.418 333.388 337.589H330.388ZM333.388 364.043C333.388 363.214 332.716 362.543 331.888 362.543C331.06 362.543 330.388 363.214 330.388 364.043H333.388ZM330.388 390.496C330.388 391.324 331.06 391.996 331.888 391.996C332.716 391.996 333.388 391.324 333.388 390.496H330.388ZM333.388 416.949C333.388 416.121 332.716 415.449 331.888 415.449C331.06 415.449 330.388 416.121 330.388 416.949H333.388ZM330.667 433.157C330.824 433.971 331.611 434.503 332.424 434.345C333.237 434.188 333.769 433.401 333.612 432.588L330.667 433.157ZM335.473 436.975C335 436.294 334.065 436.126 333.385 436.599C332.704 437.071 332.536 438.006 333.009 438.686L335.473 436.975ZM337.202 442.879C337.882 443.352 338.817 443.184 339.289 442.503C339.762 441.823 339.594 440.888 338.913 440.415L337.202 442.879ZM343.3 442.276C342.487 442.119 341.7 442.651 341.543 443.464C341.385 444.277 341.917 445.064 342.731 445.221L343.3 442.276ZM357.296 445.5C358.124 445.5 358.796 444.828 358.796 444C358.796 443.172 358.124 442.5 357.296 442.5V445.5ZM380.464 442.5C379.636 442.5 378.964 443.172 378.964 444C378.964 444.828 379.636 445.5 380.464 445.5V442.5ZM403.632 445.5C404.46 445.5 405.132 444.828 405.132 444C405.132 443.172 404.46 442.5 403.632 442.5V445.5ZM426.8 442.5C425.972 442.5 425.3 443.172 425.3 444C425.3 444.828 425.972 445.5 426.8 445.5V442.5ZM441.365 445.221C442.179 445.064 442.711 444.277 442.553 443.464C442.396 442.651 441.609 442.119 440.796 442.276L441.365 445.221ZM445.183 440.415C444.502 440.888 444.334 441.823 444.807 442.503C445.279 443.184 446.214 443.352 446.894 442.879L445.183 440.415ZM451.087 438.686C451.56 438.006 451.392 437.071 450.711 436.599C450.031 436.126 449.096 436.294 448.624 436.975L451.087 438.686ZM450.484 432.588C450.327 433.401 450.859 434.188 451.672 434.345C452.485 434.503 453.272 433.971 453.429 433.157L450.484 432.588ZM453.708 418.363C453.708 417.535 453.036 416.863 452.208 416.863C451.38 416.863 450.708 417.535 450.708 418.363H453.708ZM450.708 394.738C450.708 395.567 451.38 396.238 452.208 396.238C453.036 396.238 453.708 395.567 453.708 394.738H450.708ZM453.708 371.113C453.708 370.285 453.036 369.613 452.208 369.613C451.38 369.613 450.708 370.285 450.708 371.113H453.708ZM450.708 347.488C450.708 348.316 451.38 348.988 452.208 348.988C453.036 348.988 453.708 348.316 453.708 347.488H450.708ZM453.708 323.863C453.708 323.034 453.036 322.363 452.208 322.363C451.38 322.363 450.708 323.034 450.708 323.863H453.708ZM450.708 300.238C450.708 301.066 451.38 301.738 452.208 301.738C453.036 301.738 453.708 301.066 453.708 300.238H450.708ZM453.708 276.613C453.708 275.784 453.036 275.113 452.208 275.113C451.38 275.113 450.708 275.784 450.708 276.613H453.708ZM450.708 252.987C450.708 253.816 451.38 254.487 452.208 254.487C453.036 254.487 453.708 253.816 453.708 252.987H450.708ZM453.708 229.362C453.708 228.534 453.036 227.862 452.208 227.862C451.38 227.862 450.708 228.534 450.708 229.362H453.708ZM450.708 205.737C450.708 206.566 451.38 207.237 452.208 207.237C453.036 207.237 453.708 206.566 453.708 205.737H450.708ZM453.708 182.112C453.708 181.284 453.036 180.612 452.208 180.612C451.38 180.612 450.708 181.284 450.708 182.112H453.708ZM450.708 158.487C450.708 159.315 451.38 159.987 452.208 159.987C453.036 159.987 453.708 159.315 453.708 158.487H450.708ZM453.708 134.862C453.708 134.033 453.036 133.362 452.208 133.362C451.38 133.362 450.708 134.033 450.708 134.862H453.708ZM450.708 111.237C450.708 112.065 451.38 112.737 452.208 112.737C453.036 112.737 453.708 112.065 453.708 111.237H450.708ZM453.429 96.4428C453.272 95.6294 452.485 95.0974 451.672 95.2546C450.859 95.4118 450.327 96.1986 450.484 97.012L453.429 96.4428ZM448.624 92.6254C449.096 93.3057 450.031 93.474 450.711 93.0013C451.392 92.5287 451.56 91.5939 451.087 90.9136L448.624 92.6254ZM446.894 86.7208C446.214 86.2481 445.279 86.4164 444.807 87.0968C444.334 87.7771 444.502 88.7118 445.183 89.1845L446.894 86.7208ZM440.796 87.3242C441.609 87.4814 442.396 86.9494 442.553 86.1361C442.711 85.3227 442.179 84.5359 441.365 84.3787L440.796 87.3242ZM426.672 84.1C425.844 84.1 425.172 84.7715 425.172 85.6C425.172 86.4284 425.844 87.1 426.672 87.1V84.1ZM403.248 87.1C404.076 87.1 404.748 86.4284 404.748 85.6C404.748 84.7715 404.076 84.1 403.248 84.1V87.1ZM379.824 84.1C378.996 84.1 378.324 84.7715 378.324 85.6C378.324 86.4284 378.996 87.1 379.824 87.1V84.1ZM356.4 87.1C357.228 87.1 357.9 86.4284 357.9 85.6C357.9 84.7715 357.228 84.1 356.4 84.1V87.1ZM337.513 85.0247C336.714 85.2436 336.243 86.0688 336.462 86.8678C336.681 87.6668 337.507 88.137 338.305 87.918L337.513 85.0247ZM327.695 94.7735C328.237 94.1472 328.169 93.1999 327.543 92.6577C326.916 92.1155 325.969 92.1837 325.427 92.81L327.695 94.7735ZM321.355 98.7053L315.766 108.945L318.399 110.383L323.989 100.143L321.355 98.7053ZM304.587 129.425L293.409 149.905L296.042 151.343L307.221 130.863L304.587 129.425ZM282.23 170.385L271.051 190.865L273.685 192.303L284.863 171.823L282.23 170.385ZM259.873 211.345L254.283 221.585L256.917 223.023L262.506 212.783L259.873 211.345ZM256.917 221.585L251.327 211.345L248.694 212.783L254.283 223.023L256.917 221.585ZM240.149 190.865L228.97 170.385L226.337 171.823L237.515 192.303L240.149 190.865ZM217.791 149.905L206.613 129.425L203.979 130.863L215.158 151.343L217.791 149.905ZM195.434 108.945L189.845 98.7053L187.211 100.143L192.801 110.383L195.434 108.945ZM189.839 98.6955C188.616 96.4945 187.262 94.5302 185.773 92.81L183.505 94.7735C184.844 96.3197 186.082 98.1102 187.217 100.152L189.839 98.6955ZM173.687 85.0247C171.427 84.4053 169.033 84.1 166.512 84.1V87.1C168.79 87.1 170.915 87.3756 172.895 87.918L173.687 85.0247ZM166.512 84.1H154.8V87.1H166.512V84.1ZM131.376 84.1H107.952V87.1H131.376V84.1ZM84.528 84.1H72.816V87.1H84.528V84.1ZM72.816 84.1C71.7952 84.1 70.8008 84.192 69.8348 84.3787L70.404 87.3242C71.1728 87.1756 71.9762 87.1 72.816 87.1V84.1ZM64.3056 86.7208C63.5067 87.2759 62.7475 87.9152 62.0273 88.6353L64.1487 90.7566C64.7508 90.1545 65.374 89.6315 66.0174 89.1845L64.3056 86.7208ZM62.0273 88.6353C61.3072 89.3555 60.6679 90.1147 60.1128 90.9136L62.5765 92.6254C63.0236 91.9819 63.5465 91.3588 64.1487 90.7566L62.0273 88.6353ZM57.7707 96.4428C57.584 97.4088 57.492 98.4032 57.492 99.424H60.492C60.492 98.5842 60.5676 97.7808 60.7162 97.012L57.7707 96.4428ZM57.492 99.424V111.237H60.492V99.424H57.492ZM57.492 134.862V158.487H60.492V134.862H57.492ZM57.492 182.112V205.737H60.492V182.112H57.492ZM57.492 229.362V252.987H60.492V229.362H57.492ZM57.492 276.613V300.238H60.492V276.613H57.492ZM57.492 323.863V347.488H60.492V323.863H57.492ZM57.492 371.113V394.738H60.492V371.113H57.492ZM57.492 418.363V430.176H60.492V418.363H57.492ZM57.492 430.176C57.492 431.197 57.584 432.191 57.7707 433.157L60.7162 432.588C60.5676 431.819 60.492 431.016 60.492 430.176H57.492ZM60.1128 438.686C60.6679 439.485 61.3072 440.245 62.0273 440.965L64.1487 438.843C63.5465 438.241 63.0236 437.618 62.5765 436.975L60.1128 438.686ZM62.0273 440.965C62.7475 441.685 63.5067 442.324 64.3056 442.879L66.0174 440.415C65.374 439.968 64.7508 439.445 64.1487 438.843L62.0273 440.965ZM69.8348 445.221C70.8008 445.408 71.7952 445.5 72.816 445.5V442.5C71.9762 442.5 71.1728 442.424 70.404 442.276L69.8348 445.221ZM72.816 445.5H84.4V442.5H72.816V445.5ZM107.568 445.5H130.736V442.5H107.568V445.5ZM153.904 445.5H165.488V442.5H153.904V445.5ZM165.488 445.5C166.509 445.5 167.503 445.408 168.469 445.221L167.9 442.276C167.131 442.424 166.328 442.5 165.488 442.5V445.5ZM173.998 442.879C174.797 442.324 175.557 441.685 176.277 440.965L174.155 438.843C173.553 439.445 172.93 439.968 172.287 440.415L173.998 442.879ZM176.277 440.965C176.997 440.245 177.636 439.485 178.191 438.686L175.727 436.975C175.28 437.618 174.757 438.241 174.155 438.843L176.277 440.965ZM180.533 433.157C180.72 432.191 180.812 431.197 180.812 430.176H177.812C177.812 431.016 177.736 431.819 177.588 432.588L180.533 433.157ZM180.812 430.176V416.949H177.812V430.176H180.812ZM180.812 390.496V364.043H177.812V390.496H180.812ZM180.812 337.589V311.136H177.812V337.589H180.812ZM180.812 284.683V271.456H177.812V284.683H180.812ZM177.974 272.134L182.646 281.35L185.322 279.994L180.65 270.778L177.974 272.134ZM191.99 299.782L201.334 318.214L204.01 316.858L194.666 298.426L191.99 299.782ZM210.678 336.646L215.35 345.862L218.026 344.506L213.354 335.29L210.678 336.646ZM215.309 345.775C215.685 346.652 216.206 347.538 216.852 348.43L219.282 346.671C218.736 345.917 218.338 345.225 218.067 344.593L215.309 345.775ZM220.765 352.69C221.426 353.295 222.14 353.91 222.906 354.537L224.806 352.215C224.078 351.619 223.406 351.04 222.789 350.476L220.765 352.69ZM222.906 354.537C223.979 355.414 225.129 356.176 226.356 356.821L227.752 354.166C226.703 353.614 225.722 352.965 224.806 352.215L222.906 354.537ZM234.163 359.229C235.457 359.399 236.8 359.484 238.192 359.484V356.484C236.921 356.484 235.71 356.407 234.556 356.254L234.163 359.229ZM238.192 359.484H246.896V356.484H238.192V359.484ZM264.304 359.484H273.008V356.484H264.304V359.484ZM273.008 359.484C274.4 359.484 275.743 359.399 277.037 359.229L276.644 356.254C275.49 356.407 274.279 356.484 273.008 356.484V359.484ZM284.844 356.821C286.071 356.176 287.221 355.414 288.294 354.537L286.394 352.215C285.478 352.965 284.497 353.614 283.448 354.166L284.844 356.821ZM288.294 354.537C289.06 353.91 289.774 353.295 290.435 352.69L288.411 350.476C287.794 351.04 287.122 351.619 286.394 352.215L288.294 354.537ZM294.348 348.43C294.994 347.538 295.515 346.652 295.891 345.775L293.133 344.593C292.862 345.225 292.464 345.917 291.918 346.671L294.348 348.43ZM295.85 345.862L300.522 336.646L297.846 335.29L293.174 344.506L295.85 345.862ZM309.866 318.214L319.21 299.782L316.534 298.426L307.19 316.858L309.866 318.214ZM328.554 281.35L333.226 272.134L330.55 270.778L325.878 279.994L328.554 281.35ZM330.388 271.456V284.683H333.388V271.456H330.388ZM330.388 311.136V337.589H333.388V311.136H330.388ZM330.388 364.043V390.496H333.388V364.043H330.388ZM330.388 416.949V430.176H333.388V416.949H330.388ZM330.388 430.176C330.388 431.197 330.48 432.191 330.667 433.157L333.612 432.588C333.464 431.819 333.388 431.016 333.388 430.176H330.388ZM333.009 438.686C333.564 439.485 334.203 440.245 334.923 440.965L337.045 438.843C336.443 438.241 335.92 437.618 335.473 436.975L333.009 438.686ZM334.923 440.965C335.643 441.685 336.403 442.324 337.202 442.879L338.913 440.415C338.27 439.968 337.647 439.445 337.045 438.843L334.923 440.965ZM342.731 445.221C343.697 445.408 344.691 445.5 345.712 445.5V442.5C344.872 442.5 344.069 442.424 343.3 442.276L342.731 445.221ZM345.712 445.5H357.296V442.5H345.712V445.5ZM380.464 445.5H403.632V442.5H380.464V445.5ZM426.8 445.5H438.384V442.5H426.8V445.5ZM438.384 445.5C439.405 445.5 440.399 445.408 441.365 445.221L440.796 442.276C440.027 442.424 439.224 442.5 438.384 442.5V445.5ZM446.894 442.879C447.693 442.324 448.453 441.685 449.173 440.965L447.051 438.843C446.449 439.445 445.826 439.968 445.183 440.415L446.894 442.879ZM449.173 440.965C449.893 440.245 450.532 439.485 451.087 438.686L448.624 436.975C448.176 437.618 447.654 438.241 447.051 438.843L449.173 440.965ZM453.429 433.157C453.616 432.191 453.708 431.197 453.708 430.176H450.708C450.708 431.016 450.632 431.819 450.484 432.588L453.429 433.157ZM453.708 430.176V418.363H450.708V430.176H453.708ZM453.708 394.738V371.113H450.708V394.738H453.708ZM453.708 347.488V323.863H450.708V347.488H453.708ZM453.708 300.238V276.613H450.708V300.238H453.708ZM453.708 252.987V229.362H450.708V252.987H453.708ZM453.708 205.737V182.112H450.708V205.737H453.708ZM453.708 158.487V134.862H450.708V158.487H453.708ZM453.708 111.237V99.424H450.708V111.237H453.708ZM453.708 99.424C453.708 98.4032 453.616 97.4088 453.429 96.4428L450.484 97.012C450.632 97.7808 450.708 98.5842 450.708 99.424H453.708ZM451.087 90.9136C450.532 90.1147 449.893 89.3555 449.173 88.6353L447.051 90.7566C447.654 91.3588 448.176 91.9819 448.624 92.6254L451.087 90.9136ZM449.173 88.6353C448.453 87.9152 447.693 87.2759 446.894 86.7208L445.183 89.1845C445.826 89.6315 446.449 90.1545 447.051 90.7566L449.173 88.6353ZM441.365 84.3787C440.399 84.192 439.405 84.1 438.384 84.1V87.1C439.224 87.1 440.027 87.1756 440.796 87.3242L441.365 84.3787ZM438.384 84.1H426.672V87.1H438.384V84.1ZM403.248 84.1H379.824V87.1H403.248V84.1ZM356.4 84.1H344.688V87.1H356.4V84.1ZM344.688 84.1C342.167 84.1 339.773 84.4053 337.513 85.0247L338.305 87.918C340.285 87.3756 342.41 87.1 344.688 87.1V84.1ZM325.427 92.81C323.938 94.5302 322.584 96.4945 321.361 98.6955L323.983 100.152C325.118 98.1102 326.356 96.3197 327.695 94.7735L325.427 92.81ZM322.672 99.424L320.05 97.9671C320.046 97.9736 320.042 97.9801 320.039 97.9867L322.672 99.424ZM448.112 89.696L450.233 87.5747L450.233 87.5747L448.112 89.696ZM448.112 439.904L450.233 442.025L450.233 442.025L448.112 439.904ZM335.984 439.904L338.105 437.783L335.984 439.904ZM331.888 271.456H334.888C334.888 270.068 333.936 268.861 332.585 268.538C331.235 268.215 329.84 268.861 329.212 270.1L331.888 271.456ZM294.512 345.184L291.836 343.828C291.807 343.885 291.78 343.943 291.755 344.002L294.512 345.184ZM287.344 353.376L289.244 355.698L289.244 355.698L287.344 353.376ZM223.856 353.376L221.956 355.698L221.956 355.698L223.856 353.376ZM216.688 345.184L219.445 344.002C219.42 343.943 219.393 343.885 219.364 343.828L216.688 345.184ZM179.312 271.456L181.988 270.1C181.36 268.861 179.965 268.215 178.615 268.538C177.264 268.861 176.312 270.068 176.312 271.456H179.312ZM175.216 439.904L173.095 437.783L173.095 437.783L175.216 439.904ZM63.088 89.696L65.2093 91.8173L63.088 89.696ZM188.528 99.424L191.161 97.9867C191.158 97.9801 191.154 97.9736 191.15 97.9671L188.528 99.424ZM255.6 222.304L252.967 223.741C253.493 224.705 254.502 225.304 255.6 225.304C256.698 225.304 257.707 224.705 258.233 223.741L255.6 222.304ZM314.449 108.227C313.656 109.681 314.191 111.503 315.645 112.297C317.1 113.091 318.922 112.556 319.716 111.101L314.449 108.227ZM308.537 131.581C309.331 130.127 308.796 128.305 307.341 127.511C305.887 126.717 304.065 127.252 303.271 128.707L308.537 131.581ZM292.092 149.187C291.298 150.641 291.834 152.463 293.288 153.257C294.742 154.051 296.565 153.516 297.359 152.061L292.092 149.187ZM286.18 172.541C286.974 171.087 286.438 169.265 284.984 168.471C283.53 167.677 281.707 168.212 280.913 169.667L286.18 172.541ZM269.735 190.147C268.941 191.601 269.476 193.423 270.931 194.217C272.385 195.011 274.207 194.476 275.001 193.021L269.735 190.147ZM263.823 213.501C264.616 212.047 264.081 210.225 262.627 209.431C261.172 208.637 259.35 209.172 258.556 210.627L263.823 213.501ZM252.644 210.627C251.85 209.172 250.028 208.637 248.573 209.431C247.119 210.225 246.584 212.047 247.377 213.501L252.644 210.627ZM236.199 193.021C236.993 194.476 238.815 195.011 240.269 194.217C241.724 193.423 242.259 191.601 241.465 190.147L236.199 193.021ZM230.287 169.667C229.493 168.212 227.67 167.677 226.216 168.471C224.762 169.265 224.226 171.087 225.02 172.541L230.287 169.667ZM213.841 152.061C214.635 153.516 216.458 154.051 217.912 153.257C219.366 152.463 219.902 150.641 219.108 149.187L213.841 152.061ZM207.929 128.707C207.135 127.252 205.313 126.717 203.859 127.511C202.404 128.305 201.869 130.127 202.663 131.581L207.929 128.707ZM191.484 111.101C192.278 112.556 194.1 113.091 195.555 112.297C197.009 111.503 197.544 109.681 196.751 108.227L191.484 111.101ZM186.907 91.8282C185.823 90.5756 183.928 90.4392 182.676 91.5236C181.423 92.608 181.287 94.5026 182.371 95.7553L186.907 91.8282ZM172.498 89.3647C174.096 89.8026 175.746 88.8622 176.184 87.2642C176.622 85.6663 175.682 84.0159 174.084 83.578L172.498 89.3647ZM154.8 82.6C153.143 82.6 151.8 83.9431 151.8 85.6C151.8 87.2568 153.143 88.6 154.8 88.6V82.6ZM131.376 88.6C133.033 88.6 134.376 87.2568 134.376 85.6C134.376 83.9431 133.033 82.6 131.376 82.6V88.6ZM107.952 82.6C106.295 82.6 104.952 83.9431 104.952 85.6C104.952 87.2568 106.295 88.6 107.952 88.6V82.6ZM84.528 88.6C86.1849 88.6 87.528 87.2568 87.528 85.6C87.528 83.9431 86.1849 82.6 84.528 82.6V88.6ZM69.5502 82.9059C67.9234 83.2203 66.8595 84.7939 67.1739 86.4207C67.4883 88.0474 69.0619 89.1113 70.6886 88.7969L69.5502 82.9059ZM66.8733 90.4163C68.2339 89.471 68.5706 87.6015 67.6252 86.2409C66.6798 84.8802 64.8104 84.5436 63.4497 85.4889L66.8733 90.4163ZM58.881 90.0577C57.9356 91.4184 58.2722 93.2878 59.6329 94.2332C60.9936 95.1786 62.863 94.8419 63.8084 93.4813L58.881 90.0577ZM62.189 97.2966C62.5033 95.6699 61.4395 94.0963 59.8127 93.7819C58.1859 93.4675 56.6123 94.5314 56.298 96.1581L62.189 97.2966ZM55.992 111.237C55.992 112.893 57.3351 114.237 58.992 114.237C60.6489 114.237 61.992 112.893 61.992 111.237H55.992ZM61.992 134.862C61.992 133.205 60.6489 131.862 58.992 131.862C57.3351 131.862 55.992 133.205 55.992 134.862H61.992ZM55.992 158.487C55.992 160.144 57.3351 161.487 58.992 161.487C60.6489 161.487 61.992 160.144 61.992 158.487H55.992ZM61.992 182.112C61.992 180.455 60.6489 179.112 58.992 179.112C57.3351 179.112 55.992 180.455 55.992 182.112H61.992ZM55.992 205.737C55.992 207.394 57.3351 208.737 58.992 208.737C60.6489 208.737 61.992 207.394 61.992 205.737H55.992ZM61.992 229.362C61.992 227.705 60.6489 226.362 58.992 226.362C57.3351 226.362 55.992 227.705 55.992 229.362H61.992ZM55.992 252.987C55.992 254.644 57.3351 255.987 58.992 255.987C60.6489 255.987 61.992 254.644 61.992 252.987H55.992ZM61.992 276.613C61.992 274.956 60.6489 273.613 58.992 273.613C57.3351 273.613 55.992 274.956 55.992 276.613H61.992ZM55.992 300.238C55.992 301.895 57.3351 303.238 58.992 303.238C60.6489 303.238 61.992 301.895 61.992 300.238H55.992ZM61.992 323.863C61.992 322.206 60.6489 320.863 58.992 320.863C57.3351 320.863 55.992 322.206 55.992 323.863H61.992ZM55.992 347.488C55.992 349.145 57.3351 350.488 58.992 350.488C60.6489 350.488 61.992 349.145 61.992 347.488H55.992ZM61.992 371.113C61.992 369.456 60.6489 368.113 58.992 368.113C57.3351 368.113 55.992 369.456 55.992 371.113H61.992ZM55.992 394.738C55.992 396.395 57.3351 397.738 58.992 397.738C60.6489 397.738 61.992 396.395 61.992 394.738H55.992ZM61.992 418.363C61.992 416.707 60.6489 415.363 58.992 415.363C57.3351 415.363 55.992 416.707 55.992 418.363H61.992ZM56.298 433.442C56.6123 435.069 58.1859 436.132 59.8127 435.818C61.4395 435.504 62.5033 433.93 62.189 432.303L56.298 433.442ZM63.8084 436.119C62.863 434.758 60.9936 434.421 59.6329 435.367C58.2722 436.312 57.9356 438.182 58.881 439.542L63.8084 436.119ZM63.4497 444.111C64.8104 445.056 66.6798 444.72 67.6252 443.359C68.5706 441.998 68.2339 440.129 66.8733 439.184L63.4497 444.111ZM70.6886 440.803C69.0619 440.489 67.4883 441.553 67.1739 443.179C66.8595 444.806 67.9234 446.38 69.5502 446.694L70.6886 440.803ZM84.4 447C86.0569 447 87.4 445.657 87.4 444C87.4 442.343 86.0569 441 84.4 441V447ZM107.568 441C105.911 441 104.568 442.343 104.568 444C104.568 445.657 105.911 447 107.568 447V441ZM130.736 447C132.393 447 133.736 445.657 133.736 444C133.736 442.343 132.393 441 130.736 441V447ZM153.904 441C152.247 441 150.904 442.343 150.904 444C150.904 445.657 152.247 447 153.904 447V441ZM168.754 446.694C170.381 446.38 171.444 444.806 171.13 443.179C170.816 441.553 169.242 440.489 167.615 440.803L168.754 446.694ZM171.431 439.184C170.07 440.129 169.733 441.998 170.679 443.359C171.624 444.72 173.494 445.056 174.854 444.111L171.431 439.184ZM179.423 439.542C180.368 438.182 180.032 436.312 178.671 435.367C177.31 434.421 175.441 434.758 174.496 436.119L179.423 439.542ZM176.115 432.303C175.801 433.93 176.865 435.504 178.491 435.818C180.118 436.132 181.692 435.069 182.006 433.442L176.115 432.303ZM182.312 416.949C182.312 415.292 180.969 413.949 179.312 413.949C177.655 413.949 176.312 415.292 176.312 416.949H182.312ZM176.312 390.496C176.312 392.153 177.655 393.496 179.312 393.496C180.969 393.496 182.312 392.153 182.312 390.496H176.312ZM182.312 364.043C182.312 362.386 180.969 361.043 179.312 361.043C177.655 361.043 176.312 362.386 176.312 364.043H182.312ZM176.312 337.589C176.312 339.246 177.655 340.589 179.312 340.589C180.969 340.589 182.312 339.246 182.312 337.589H176.312ZM182.312 311.136C182.312 309.479 180.969 308.136 179.312 308.136C177.655 308.136 176.312 309.479 176.312 311.136H182.312ZM176.312 284.683C176.312 286.34 177.655 287.683 179.312 287.683C180.969 287.683 182.312 286.34 182.312 284.683H176.312ZM181.308 282.028C182.057 283.506 183.863 284.097 185.34 283.348C186.818 282.599 187.409 280.793 186.66 279.316L181.308 282.028ZM196.004 297.748C195.255 296.27 193.449 295.679 191.972 296.428C190.494 297.177 189.903 298.983 190.652 300.46L196.004 297.748ZM199.996 318.892C200.745 320.37 202.551 320.961 204.028 320.212C205.506 319.463 206.097 317.657 205.348 316.18L199.996 318.892ZM214.692 334.612C213.943 333.134 212.137 332.543 210.66 333.292C209.182 334.041 208.591 335.847 209.34 337.324L214.692 334.612ZM215.637 349.31C216.609 350.652 218.485 350.952 219.827 349.98C221.169 349.008 221.469 347.133 220.497 345.791L215.637 349.31ZM223.802 349.369C222.579 348.251 220.681 348.336 219.563 349.559C218.445 350.782 218.53 352.679 219.753 353.797L223.802 349.369ZM225.658 358.149C227.125 358.92 228.939 358.356 229.71 356.889C230.48 355.422 229.916 353.609 228.45 352.838L225.658 358.149ZM234.753 354.767C233.11 354.55 231.603 355.706 231.386 357.348C231.169 358.991 232.324 360.498 233.967 360.716L234.753 354.767ZM246.896 360.984C248.553 360.984 249.896 359.641 249.896 357.984C249.896 356.327 248.553 354.984 246.896 354.984V360.984ZM264.304 354.984C262.647 354.984 261.304 356.327 261.304 357.984C261.304 359.641 262.647 360.984 264.304 360.984V354.984ZM277.233 360.716C278.876 360.498 280.031 358.991 279.814 357.348C279.597 355.706 278.09 354.55 276.447 354.767L277.233 360.716ZM282.75 352.838C281.284 353.609 280.72 355.422 281.49 356.889C282.261 358.356 284.075 358.92 285.542 358.149L282.75 352.838ZM291.447 353.797C292.67 352.679 292.755 350.782 291.637 349.559C290.519 348.336 288.621 348.251 287.399 349.369L291.447 353.797ZM290.703 345.791C289.731 347.133 290.031 349.008 291.373 349.98C292.715 350.952 294.591 350.652 295.563 349.31L290.703 345.791ZM301.86 337.324C302.609 335.847 302.018 334.041 300.541 333.292C299.063 332.543 297.257 333.134 296.508 334.612L301.86 337.324ZM305.852 316.18C305.103 317.657 305.694 319.463 307.172 320.212C308.649 320.961 310.455 320.37 311.204 318.892L305.852 316.18ZM320.548 300.46C321.297 298.983 320.706 297.177 319.228 296.428C317.751 295.679 315.945 296.27 315.196 297.748L320.548 300.46ZM324.54 279.316C323.791 280.793 324.382 282.599 325.86 283.348C327.337 284.097 329.143 283.506 329.892 282.028L324.54 279.316ZM328.888 284.683C328.888 286.34 330.231 287.683 331.888 287.683C333.545 287.683 334.888 286.34 334.888 284.683H328.888ZM334.888 311.136C334.888 309.479 333.545 308.136 331.888 308.136C330.231 308.136 328.888 309.479 328.888 311.136H334.888ZM328.888 337.589C328.888 339.246 330.231 340.589 331.888 340.589C333.545 340.589 334.888 339.246 334.888 337.589H328.888ZM334.888 364.043C334.888 362.386 333.545 361.043 331.888 361.043C330.231 361.043 328.888 362.386 328.888 364.043H334.888ZM328.888 390.496C328.888 392.153 330.231 393.496 331.888 393.496C333.545 393.496 334.888 392.153 334.888 390.496H328.888ZM334.888 416.949C334.888 415.292 333.545 413.949 331.888 413.949C330.231 413.949 328.888 415.292 328.888 416.949H334.888ZM329.194 433.442C329.508 435.069 331.082 436.132 332.709 435.818C334.335 435.504 335.399 433.93 335.085 432.303L329.194 433.442ZM336.704 436.119C335.759 434.758 333.89 434.421 332.529 435.367C331.168 436.312 330.832 438.182 331.777 439.542L336.704 436.119ZM336.346 444.111C337.706 445.056 339.576 444.72 340.521 443.359C341.467 441.998 341.13 440.129 339.769 439.184L336.346 444.111ZM343.585 440.803C341.958 440.489 340.384 441.553 340.07 443.179C339.756 444.806 340.819 446.38 342.446 446.694L343.585 440.803ZM357.296 447C358.953 447 360.296 445.657 360.296 444C360.296 442.343 358.953 441 357.296 441V447ZM380.464 441C378.807 441 377.464 442.343 377.464 444C377.464 445.657 378.807 447 380.464 447V441ZM403.632 447C405.289 447 406.632 445.657 406.632 444C406.632 442.343 405.289 441 403.632 441V447ZM426.8 441C425.143 441 423.8 442.343 423.8 444C423.8 445.657 425.143 447 426.8 447V441ZM441.65 446.694C443.277 446.38 444.341 444.806 444.026 443.179C443.712 441.553 442.138 440.489 440.511 440.803L441.65 446.694ZM444.327 439.184C442.966 440.129 442.629 441.998 443.575 443.359C444.52 444.72 446.39 445.056 447.75 444.111L444.327 439.184ZM452.319 439.542C453.264 438.182 452.928 436.312 451.567 435.367C450.206 434.421 448.337 434.758 447.392 436.119L452.319 439.542ZM449.011 432.303C448.697 433.93 449.761 435.504 451.387 435.818C453.014 436.132 454.588 435.069 454.902 433.442L449.011 432.303ZM455.208 418.363C455.208 416.707 453.865 415.363 452.208 415.363C450.551 415.363 449.208 416.707 449.208 418.363H455.208ZM449.208 394.738C449.208 396.395 450.551 397.738 452.208 397.738C453.865 397.738 455.208 396.395 455.208 394.738H449.208ZM455.208 371.113C455.208 369.456 453.865 368.113 452.208 368.113C450.551 368.113 449.208 369.456 449.208 371.113H455.208ZM449.208 347.488C449.208 349.145 450.551 350.488 452.208 350.488C453.865 350.488 455.208 349.145 455.208 347.488H449.208ZM455.208 323.863C455.208 322.206 453.865 320.863 452.208 320.863C450.551 320.863 449.208 322.206 449.208 323.863H455.208ZM449.208 300.238C449.208 301.895 450.551 303.238 452.208 303.238C453.865 303.238 455.208 301.895 455.208 300.238H449.208ZM455.208 276.613C455.208 274.956 453.865 273.613 452.208 273.613C450.551 273.613 449.208 274.956 449.208 276.613H455.208ZM449.208 252.987C449.208 254.644 450.551 255.987 452.208 255.987C453.865 255.987 455.208 254.644 455.208 252.987H449.208ZM455.208 229.362C455.208 227.705 453.865 226.362 452.208 226.362C450.551 226.362 449.208 227.705 449.208 229.362H455.208ZM449.208 205.737C449.208 207.394 450.551 208.737 452.208 208.737C453.865 208.737 455.208 207.394 455.208 205.737H449.208ZM455.208 182.112C455.208 180.455 453.865 179.112 452.208 179.112C450.551 179.112 449.208 180.455 449.208 182.112H455.208ZM449.208 158.487C449.208 160.144 450.551 161.487 452.208 161.487C453.865 161.487 455.208 160.144 455.208 158.487H449.208ZM455.208 134.862C455.208 133.205 453.865 131.862 452.208 131.862C450.551 131.862 449.208 133.205 449.208 134.862H455.208ZM449.208 111.237C449.208 112.893 450.551 114.237 452.208 114.237C453.865 114.237 455.208 112.893 455.208 111.237H449.208ZM454.902 96.1581C454.588 94.5314 453.014 93.4675 451.387 93.7819C449.761 94.0963 448.697 95.6699 449.011 97.2966L454.902 96.1581ZM447.392 93.4812C448.337 94.8419 450.206 95.1786 451.567 94.2332C452.928 93.2878 453.264 91.4184 452.319 90.0577L447.392 93.4812ZM447.75 85.4889C446.39 84.5436 444.52 84.8802 443.575 86.2409C442.629 87.6015 442.966 89.471 444.327 90.4163L447.75 85.4889ZM440.511 88.7969C442.138 89.1113 443.712 88.0474 444.026 86.4207C444.341 84.7939 443.277 83.2203 441.65 82.9059L440.511 88.7969ZM426.672 82.6C425.015 82.6 423.672 83.9431 423.672 85.6C423.672 87.2568 425.015 88.6 426.672 88.6V82.6ZM403.248 88.6C404.905 88.6 406.248 87.2568 406.248 85.6C406.248 83.9431 404.905 82.6 403.248 82.6V88.6ZM379.824 82.6C378.167 82.6 376.824 83.9431 376.824 85.6C376.824 87.2568 378.167 88.6 379.824 88.6V82.6ZM356.4 88.6C358.057 88.6 359.4 87.2568 359.4 85.6C359.4 83.9431 358.057 82.6 356.4 82.6V88.6ZM337.116 83.578C335.518 84.0159 334.578 85.6663 335.016 87.2642C335.454 88.8622 337.104 89.8026 338.702 89.3647L337.116 83.578ZM328.829 95.7553C329.913 94.5026 329.777 92.608 328.524 91.5236C327.272 90.4392 325.377 90.5756 324.293 91.8282L328.829 95.7553ZM320.039 97.9867L314.449 108.227L319.716 111.101L325.305 100.861L320.039 97.9867ZM303.271 128.707L292.092 149.187L297.359 152.061L308.537 131.581L303.271 128.707ZM280.913 169.667L269.735 190.147L275.001 193.021L286.18 172.541L280.913 169.667ZM258.556 210.627L252.967 220.867L258.233 223.741L263.823 213.501L258.556 210.627ZM258.233 220.867L252.644 210.627L247.377 213.501L252.967 223.741L258.233 220.867ZM241.465 190.147L230.287 169.667L225.02 172.541L236.199 193.021L241.465 190.147ZM219.108 149.187L207.929 128.707L202.663 131.581L213.841 152.061L219.108 149.187ZM196.751 108.227L191.161 97.9867L185.895 100.861L191.484 111.101L196.751 108.227ZM191.15 97.9671C189.884 95.6866 188.472 93.6354 186.907 91.8282L182.371 95.7553C183.634 97.2145 184.815 98.9181 185.906 100.881L191.15 97.9671ZM174.084 83.578C171.683 82.9202 169.155 82.6 166.512 82.6V88.6C168.668 88.6 170.659 88.8607 172.498 89.3647L174.084 83.578ZM166.512 82.6H154.8V88.6H166.512V82.6ZM131.376 82.6H107.952V88.6H131.376V82.6ZM84.528 82.6H72.816V88.6H84.528V82.6ZM72.816 82.6C71.7047 82.6 70.6148 82.7002 69.5502 82.9059L70.6886 88.7969C71.3589 88.6674 72.0667 88.6 72.816 88.6V82.6ZM63.4497 85.4889C62.573 86.0981 61.7458 86.7955 60.9667 87.5747L65.2093 91.8173C65.7525 91.2741 66.3076 90.8094 66.8733 90.4163L63.4497 85.4889ZM60.9667 87.5747C60.1875 88.3538 59.4901 89.181 58.881 90.0577L63.8084 93.4813C64.2014 92.9156 64.6662 92.3605 65.2093 91.8173L60.9667 87.5747ZM56.298 96.1581C56.0922 97.2228 55.992 98.3127 55.992 99.424H61.992C61.992 98.6747 62.0594 97.9668 62.189 97.2966L56.298 96.1581ZM55.992 99.424V111.237H61.992V99.424H55.992ZM55.992 134.862V158.487H61.992V134.862H55.992ZM55.992 182.112V205.737H61.992V182.112H55.992ZM55.992 229.362V252.987H61.992V229.362H55.992ZM55.992 276.613V300.238H61.992V276.613H55.992ZM55.992 323.863V347.488H61.992V323.863H55.992ZM55.992 371.113V394.738H61.992V371.113H55.992ZM55.992 418.363V430.176H61.992V418.363H55.992ZM55.992 430.176C55.992 431.287 56.0922 432.377 56.298 433.442L62.189 432.303C62.0594 431.633 61.992 430.925 61.992 430.176H55.992ZM58.881 439.542C59.4901 440.419 60.1875 441.246 60.9667 442.025L65.2093 437.783C64.6662 437.24 64.2014 436.684 63.8084 436.119L58.881 439.542ZM60.9667 442.025C61.7458 442.804 62.573 443.502 63.4497 444.111L66.8733 439.184C66.3076 438.791 65.7525 438.326 65.2093 437.783L60.9667 442.025ZM69.5502 446.694C70.6148 446.9 71.7047 447 72.816 447V441C72.0667 441 71.3589 440.933 70.6886 440.803L69.5502 446.694ZM72.816 447H84.4V441H72.816V447ZM107.568 447H130.736V441H107.568V447ZM153.904 447H165.488V441H153.904V447ZM165.488 447C166.599 447 167.689 446.9 168.754 446.694L167.615 440.803C166.945 440.933 166.237 441 165.488 441V447ZM174.854 444.111C175.731 443.502 176.558 442.804 177.337 442.025L173.095 437.783C172.552 438.326 171.996 438.791 171.431 439.184L174.854 444.111ZM177.337 442.025C178.116 441.246 178.814 440.419 179.423 439.542L174.496 436.119C174.103 436.684 173.638 437.24 173.095 437.783L177.337 442.025ZM182.006 433.442C182.212 432.377 182.312 431.287 182.312 430.176H176.312C176.312 430.925 176.245 431.633 176.115 432.303L182.006 433.442ZM182.312 430.176V416.949H176.312V430.176H182.312ZM182.312 390.496V364.043H176.312V390.496H182.312ZM182.312 337.589V311.136H176.312V337.589H182.312ZM182.312 284.683V271.456H176.312V284.683H182.312ZM176.636 272.812L181.308 282.028L186.66 279.316L181.988 270.1L176.636 272.812ZM190.652 300.46L199.996 318.892L205.348 316.18L196.004 297.748L190.652 300.46ZM209.34 337.324L214.012 346.54L219.364 343.828L214.692 334.612L209.34 337.324ZM213.931 346.366C214.359 347.366 214.94 348.348 215.637 349.31L220.497 345.791C220.002 345.107 219.664 344.511 219.445 344.002L213.931 346.366ZM219.753 353.797C220.437 354.422 221.172 355.056 221.956 355.698L225.756 351.054C225.047 350.474 224.396 349.912 223.802 349.369L219.753 353.797ZM221.956 355.698C223.107 356.639 224.342 357.457 225.658 358.149L228.45 352.838C227.491 352.334 226.594 351.74 225.756 351.054L221.956 355.698ZM233.967 360.716C235.33 360.896 236.739 360.984 238.192 360.984V354.984C236.982 354.984 235.836 354.91 234.753 354.767L233.967 360.716ZM238.192 360.984H246.896V354.984H238.192V360.984ZM264.304 360.984H273.008V354.984H264.304V360.984ZM273.008 360.984C274.461 360.984 275.87 360.896 277.233 360.716L276.447 354.767C275.364 354.91 274.218 354.984 273.008 354.984V360.984ZM285.542 358.149C286.858 357.457 288.093 356.639 289.244 355.698L285.444 351.054C284.606 351.74 283.709 352.334 282.75 352.838L285.542 358.149ZM289.244 355.698C290.028 355.056 290.763 354.422 291.447 353.797L287.399 349.369C286.804 349.912 286.154 350.474 285.444 351.054L289.244 355.698ZM295.563 349.31C296.26 348.348 296.841 347.366 297.269 346.366L291.755 344.002C291.536 344.511 291.198 345.107 290.703 345.791L295.563 349.31ZM297.188 346.54L301.86 337.324L296.508 334.612L291.836 343.828L297.188 346.54ZM311.204 318.892L320.548 300.46L315.196 297.748L305.852 316.18L311.204 318.892ZM329.892 282.028L334.564 272.812L329.212 270.1L324.54 279.316L329.892 282.028ZM328.888 271.456V284.683H334.888V271.456H328.888ZM328.888 311.136V337.589H334.888V311.136H328.888ZM328.888 364.043V390.496H334.888V364.043H328.888ZM328.888 416.949V430.176H334.888V416.949H328.888ZM328.888 430.176C328.888 431.287 328.988 432.377 329.194 433.442L335.085 432.303C334.955 431.633 334.888 430.925 334.888 430.176H328.888ZM331.777 439.542C332.386 440.419 333.084 441.246 333.863 442.025L338.105 437.783C337.562 437.24 337.097 436.684 336.704 436.119L331.777 439.542ZM333.863 442.025C334.642 442.804 335.469 443.502 336.346 444.111L339.769 439.184C339.204 438.791 338.648 438.326 338.105 437.783L333.863 442.025ZM342.446 446.694C343.511 446.9 344.601 447 345.712 447V441C344.963 441 344.255 440.933 343.585 440.803L342.446 446.694ZM345.712 447H357.296V441H345.712V447ZM380.464 447H403.632V441H380.464V447ZM426.8 447H438.384V441H426.8V447ZM438.384 447C439.495 447 440.585 446.9 441.65 446.694L440.511 440.803C439.841 440.933 439.133 441 438.384 441V447ZM447.75 444.111C448.627 443.502 449.454 442.804 450.233 442.025L445.991 437.783C445.448 438.326 444.892 438.791 444.327 439.184L447.75 444.111ZM450.233 442.025C451.013 441.246 451.71 440.419 452.319 439.542L447.392 436.119C446.999 436.684 446.534 437.24 445.991 437.783L450.233 442.025ZM454.902 433.442C455.108 432.377 455.208 431.287 455.208 430.176H449.208C449.208 430.925 449.141 431.633 449.011 432.303L454.902 433.442ZM455.208 430.176V418.363H449.208V430.176H455.208ZM455.208 394.738V371.113H449.208V394.738H455.208ZM455.208 347.488V323.863H449.208V347.488H455.208ZM455.208 300.238V276.613H449.208V300.238H455.208ZM455.208 252.987V229.362H449.208V252.987H455.208ZM455.208 205.737V182.112H449.208V205.737H455.208ZM455.208 158.487V134.862H449.208V158.487H455.208ZM455.208 111.237V99.424H449.208V111.237H455.208ZM455.208 99.424C455.208 98.3127 455.108 97.2228 454.902 96.1581L449.011 97.2966C449.141 97.9668 449.208 98.6747 449.208 99.424H455.208ZM452.319 90.0577C451.71 89.181 451.013 88.3538 450.233 87.5747L445.991 91.8173C446.534 92.3605 446.999 92.9156 447.392 93.4812L452.319 90.0577ZM450.233 87.5747C449.454 86.7955 448.627 86.0981 447.75 85.4889L444.327 90.4163C444.892 90.8094 445.448 91.2741 445.991 91.8173L450.233 87.5747ZM441.65 82.9059C440.585 82.7002 439.495 82.6 438.384 82.6V88.6C439.133 88.6 439.841 88.6674 440.511 88.7969L441.65 82.9059ZM438.384 82.6H426.672V88.6H438.384V82.6ZM403.248 82.6H379.824V88.6H403.248V82.6ZM356.4 82.6H344.688V88.6H356.4V82.6ZM344.688 82.6C342.045 82.6 339.517 82.9202 337.116 83.578L338.702 89.3647C340.541 88.8607 342.532 88.6 344.688 88.6V82.6ZM324.293 91.8282C322.728 93.6354 321.316 95.6866 320.05 97.9671L325.295 100.881C326.385 98.9181 327.566 97.2145 328.829 95.7553L324.293 91.8282Z" fill="white"/>
</svg>
